<svg id="Слой_1" data-name="Слой 1" xmlns="http://www.w3.org/2000/svg" viewBox="0 0 283.48 154.82"><defs><style>.cls-1{fill:#3c3b3b;stroke:#231f20;stroke-miterlimit:10;stroke-width:0px;fill-rule:evenodd;}</style></defs><title>Logo</title><path class="cls-1" d="M211.77,71.25c-.36,10.86-1.64,29.33-3.65,41.26,3.56-.86,7.12-1.58,10.64-2.18a209.92,209.92,0,0,1-7-39.08ZM89.35,77.67c-13-6.48-27-11.49-39.81-11.61,10,19.26,22.18,31.9,44.58,42.08a140.9,140.9,0,0,0,18.11,40c-35-18.71-56.3-33.12-107.49-40.52,28.81-1.12,46.11-.07,57,1.72,9.45,5.9,18.34,11.73,27.61,18.06-6.72-5.43-14.67-11.28-23.43-17.28a54.9,54.9,0,0,1,8.14,2.33c5.29,3.44,10.53,6.94,15.89,10.6-4.45-3.6-9.45-7.38-14.86-11.27q-3.89-3.85-7.41-7.81c7.9,5,15.5,10,23.37,15.4C83.41,113.2,74.17,106.48,64,99.62,52.24,85.28,44,69.3,39,48.73c17.78,5.12,38.65,14,50.39,28.94ZM93,34.52c-2.66,37.13.39,80,22.93,111.26V115.6a105.63,105.63,0,0,1-6.14-9.42,125.34,125.34,0,0,1,14.34.66c-1.31,2.86-2.72,6-4.24,8.78V145.8c5.94-11.84,12.06-24.32,15.73-37.57,18.83,3.63,31.66,6.73,46.26,13.84a232.4,232.4,0,0,1-10.63,35c20.23-29.57,33.07-63.45,36.25-99.22-5.36,3.48-10.65,7-16.08,10.72,4.82-3.9,10.27-8,16.21-12.24q.14-1.73.25-3.47c-5.69,3.68-11.3,7.43-17.06,11.36,4.9-4,10.46-8.15,16.51-12.46L205,50.27c-5.1,3.32-10.16,6.71-15.34,10.24C194,57,198.83,53.37,204,49.62a151.17,151.17,0,0,1-19.27-15.13c2.72,25.46,3.4,46.54.39,68.86a261.39,261.39,0,0,1-15.22-86.07L149,2.73c.19,39.14,14.47,77.09,35.31,106.19q-.8,5.1-1.87,10.29c-17.93-24.1-32.4-49.14-37-90.27-3.56,27.71-9,49-17.9,69.89A74.56,74.56,0,0,0,113,102q-2,.52-4,1.12C129.6,74.86,140.93,37.21,142,2.73l-17.26,12c4.35,5.73,8.28,11.21,11.69,16.3-4.24-5.36-8.41-10.51-12.67-15.62l-2,1.4c4.68,6.13,8.91,12,12.53,17.41-4.42-5.58-8.76-10.94-13.2-16.26q0,2.18-.06,4.32c4.23,5.59,8.07,10.94,11.4,15.92C128.61,33.35,124.84,28.67,121,24c-.9,25.37-7,47.19-15.23,71.73l-.47,1.41C96.65,77.7,93.56,56.48,93,34.52ZM138.08,98c4.65-19,6.65-36.81,7.33-58.47.65,23.71,4.19,40.43,10.43,59A150.33,150.33,0,0,0,138.08,98Zm91.7,10.8,3.09-.32c-.72,3.41-1.47,6.83-2.25,10.31,1-3.27,2-6.74,3-10.38,21.57-2.05,40.66-1,54.58-.79-17.82,3-35.45,6.58-52.33,10.84A191.16,191.16,0,0,0,254.5,139.4a153.63,153.63,0,0,0-25-5.41c-2.17-4.12-4.16-8.16-6-12.14-16.69,5.19-28.39,11.72-42.74,26.07,20-28.69,27.27-60.17,30.7-91.29,3.26,19,7.63,33.57,14.62,46.71-1.13,5.58-2.33,11.14-3.61,16.85,1.48-4.76,2.94-9.95,4.35-15.48q1.07,1.94,2.22,3.85c-.74,3.49-1.51,7-2.31,10.57C227.79,115.89,228.79,112.44,229.77,108.82Z" transform="translate(-4.73 -2.63)"/></svg>